<svg xmlns="http://www.w3.org/2000/svg" viewBox="221.93 44.01 73.99 69">
  <g data-name="Ebene 1" transform="matrix(1, 0, 0, 1, 209.944901, 28.010563)">
    <path class="cls-1" d="M74.49,82h-61a1.5,1.5,0,1,0,0,3h61a1.5,1.5,0,1,0,0-3Z" style="fill-rule: evenodd;"/>
    <path class="cls-1" d="M84.48,82h-2a1.5,1.5,0,0,0,0,3h2a1.5,1.5,0,1,0,0-3Z" style="fill-rule: evenodd;"/>
    <path class="cls-1" d="M68,77a2,2,0,0,0-2-2H24a2,2,0,0,0-2,2v3H68Z" style="fill-rule: evenodd;"/>
    <path class="cls-1" d="M74,60.3v4.2a1.5,1.5,0,0,1-3,0V55a2,2,0,0,0-2-2H65V21a5,5,0,0,0-5-5H30a5,5,0,0,0-5,5V73H65V56h3v8.5a4.5,4.5,0,0,0,9,0V36H74ZM60,47H30V24a3,3,0,0,1,3-3H57a3,3,0,0,1,3,3Z" style="fill-rule: evenodd;"/>
    <path class="cls-1" d="M82,31V23H80V17.5a1.5,1.5,0,0,0-3,0V23H74V17.5a1.5,1.5,0,0,0-3,0V23H69v8a3,3,0,0,0,3,3h7A3,3,0,0,0,82,31Z" style="fill-rule: evenodd;"/>
    <path class="cls-1" d="M45,23A11,11,0,1,0,56,34,11,11,0,0,0,45,23ZM42.6,42l1.2-6.5H40.9L47.4,27l-1.2,6.5h2.9Z" style="fill-rule: evenodd;"/>
  </g>
</svg>